<mxfile host="app.diagrams.net" modified="2023-05-17T06:11:28.377Z" agent="Mozilla/5.0 (Macintosh; Intel Mac OS X 10_15_7) AppleWebKit/537.36 (KHTML, like Gecko) Chrome/112.0.0.0 Safari/537.36" etag="v7ANQue_YR055k2EkELN" version="21.3.2" type="github">
  <diagram name="第 1 页" id="u18BnpPheXo7UvyAutZH">
    <mxGraphModel dx="474" dy="771" grid="1" gridSize="10" guides="1" tooltips="1" connect="1" arrows="1" fold="1" page="1" pageScale="1" pageWidth="827" pageHeight="1169" math="0" shadow="0">
      <root>
        <mxCell id="0" />
        <mxCell id="1" parent="0" />
        <mxCell id="4TnDwBZE384rCVWhGlAl-3" value="" style="rounded=0;whiteSpace=wrap;html=1;" vertex="1" parent="1">
          <mxGeometry x="100" y="160" width="360" height="160" as="geometry" />
        </mxCell>
        <mxCell id="4TnDwBZE384rCVWhGlAl-1" value="硬件" style="rounded=0;whiteSpace=wrap;html=1;" vertex="1" parent="1">
          <mxGeometry x="100" y="330" width="360" height="60" as="geometry" />
        </mxCell>
        <mxCell id="4TnDwBZE384rCVWhGlAl-2" value="硬件驱动" style="rounded=0;whiteSpace=wrap;html=1;" vertex="1" parent="1">
          <mxGeometry x="120" y="280" width="320" height="30" as="geometry" />
        </mxCell>
        <mxCell id="4TnDwBZE384rCVWhGlAl-4" value="操作系统" style="text;html=1;align=center;verticalAlign=middle;resizable=0;points=[];autosize=1;strokeColor=none;fillColor=none;" vertex="1" parent="1">
          <mxGeometry x="245" y="170" width="70" height="30" as="geometry" />
        </mxCell>
      </root>
    </mxGraphModel>
  </diagram>
</mxfile>
